/* XPM */
static char *_8a34e0ab5884764d45140fc41f4ad50Pakf1lBnCROzLPg8[] = {
/* columns rows colors chars-per-pixel */
"32 32 16 1 ",
"  c white",
". c None",
"X c #66CCFF",
"o c #99FFFF",
"O c #3399FF",
"+ c #CCFFFF",
"@ c gray40",
"# c #888888",
"$ c gray80",
"% c #FFCC33",
"& c #FFCC00",
"* c #FF99FF",
"= c #FF99CC",
"- c #FF9999",
"; c #FF9966",
": c black",
/* pixels */
".............................XXX",
"............................XooO",
"...........................XoooO",
"..........................XoooO.",
".........................XoooO..",
"........................XoooO...",
".......................XoooO....",
"......................XoooO.....",
".....................XoooO......",
"....................XoooO.......",
"...................XoooO........",
"..................XoooO.........",
".................Xo+oO..........",
"................Xo+oO...........",
"...............Xo+oO............",
"..............Xo+oO.............",
".............Xo oO..............",
"............Xo oO...............",
"...........Xo oO................",
"..........Xo oO.................",
".......::Xo oO..................",
"......: @o oO...................",
"......: @ oO....................",
".....:#  @@:....................",
"....: # $$$:....................",
"...:   ##::.....................",
"..:   $$:.......................",
".:   $$:........................",
":   $$:.........................",
":  $$:..........................",
": $$:...........................",
".:::............................"
};
