/* XPM */
static char *_6f418fdc3754121976db1f142635badw1FMapKfDVQTBDGi[] = {
/* columns rows colors chars-per-pixel */
"31 31 32 1 ",
"  c white",
". c None",
"X c #CCCCFF",
"o c #9999FF",
"O c #3300FF",
"+ c #FFCC99",
"@ c #CC9966",
"# c #0000AA",
"$ c #6666FF",
"% c #996666",
"& c #996633",
"* c #000077",
"= c #663366",
"- c #663333",
"; c #0000CC",
": c #6666CC",
"> c #663300",
", c #99CCFF",
"< c #996699",
"1 c #3333CC",
"2 c black",
"3 c black",
"4 c black",
"5 c black",
"6 c black",
"7 c black",
"8 c black",
"9 c black",
"0 c black",
"q c black",
"w c black",
"e c black",
/* pixels */
"............2222222............",
".........222XXXoooo222.........",
".......22XXXOOO+++Oooo22.......",
"......2XX++++++@@@@OO#o$2......",
".....2X++@@@@@@O@%@@@O#O$2.....",
"....2X+@@@@%%%%%O@%@@@O#O$2....",
"...2X+@@&%%%%*=-#@%@@O; #O$2...",
"..2X:o@&%=*=*@*@@#@@O# ; #O;2..",
"..2X:*&>-*o*o*o* @#O#O# ; #;2..",
".2X#, *+*o$o$ $ & @@@#O#O#O#;2.",
".2XO#o@< < 1 1 &+&+@ O  #O#O;2.",
".2X O oO< 1 & 1 &+& O O#  O#;2.",
"2X#O ,#O#* 1 1+1+& O O#O#O O;;2",
"2XO,O#   **-- %+%%O O# #O#O#O;2",
"2X,O, #O#O%& %+% OoO# # # #O#;2",
"2XO,O#O O#%&& %+OoOoO# ;O O O;2",
"2X#O#O O O#%@%%%#O#O#O#O#O#O#;2",
"2XO# #O#o o @@%@ #O#O O# #O O;2",
"2X#  O#O o#O#@@ $o$OoO O# #O#;2",
".2X#$ O#O O# $ $  O#O#O#O O#;2.",
".2XO $#O#O O# $O#O#O#O#O#O O;2.",
".2X#$ O#  O#O O#O O O# # # ;;2.",
"..2$ #  #O O O O O O O  O X;2..",
"..2 $O # #  O O O O O OOOXo;2..",
"...2  #O O   O O O O OO  O;2...",
"....2  #  O;        OO Xo$2....",
".....2  #O            Xo$2.....",
"......2             XXo$2......",
".......22 XXXXXXXXXooo22.......",
".........222ooooooo222.........",
"............2222222............"
};
