/* XPM */
static char *_cdb36850b5c426eb0921f743f172483RzkBdGeCjCVdWQg2[] = {
/* columns rows colors chars-per-pixel */
"30 32 16 1 ",
"  c white",
". c None",
"X c #555555",
"o c gray60",
"O c #330000",
"+ c #222222",
"@ c gray40",
"# c #AAAAAA",
"$ c #BBBBBB",
"% c #996600",
"& c gray80",
"* c red",
"= c #777777",
"- c #FF9999",
"; c #FF9966",
": c black",
/* pixels */
"..................XXXXX.......",
"................XX     X......",
"...............X        X.....",
"..............X    XXXXX X....",
".............X   ::::   X X...",
"............Xooo:O+@@::  X X..",
"........XXXXXXXo:+@##@O:  X X.",
".......X@    @$:+O@##@+O: X  X",
".....XX @    @$:O+O@@+O+O:X  X",
"...XX%  @    @$$:O+O+O+O+:X  X",
"..X   % @  X@  $:+O+O+O+O+X  X",
".X    %o@oX@   $$:+O+O+O+OX  X",
".X XX XXXXo: $$ $$::O+O+O:o  X",
".XXX X@@Xo :$    $$$:::::o  X.",
"....X.X@X$  :      $$$$$Xoo X.",
".......X&$   :     $   @@XoX..",
"......X &$    :    $  @  XX...",
"......X &$     :   $ @    X...",
".....X*  &$     ::$  @X  *X...",
"....X *  &&$      ::@X   *X...",
"...X   *  XX$      oXo    X...",
".XX =   *X.X$$    oXX@@@@@X...",
"X    == X..X&&$$$$X@Xo   X....",
"X      X..X*  &&&X@@Xo   X....",
".XXXXXX...X*    XXXX %% X.....",
".........X  ** X..X    %X.....",
"........X=    X...XX   X......",
"........X =  X....X   X.......",
"........X  ==X.....XXX........",
"........X   X.................",
"........X   X.................",
".........XXX.................."
};
