/* XPM */
static char *_d8542e0a11d47f4c0a8724af35aea221eVqe5KRqBT2xozQ[] = {
/* columns rows colors chars-per-pixel */
"32 32 135 2 ",
"   c #1F0E03",
".  c #210F04",
"X  c #251306",
"o  c #281507",
"O  c #2B1806",
"+  c #2A1608",
"@  c #2E190A",
"#  c #321D07",
"$  c #321D0A",
"%  c #3B2207",
"&  c #352009",
"*  c #3B220B",
"=  c #3B2310",
"-  c #432607",
";  c #4B2A07",
":  c #432709",
">  c #45290B",
",  c #4C2B08",
"<  c #542E06",
"1  c #592F04",
"2  c #582F05",
"3  c #592F05",
"4  c #582F04",
"5  c #5A2F04",
"6  c #5A2F05",
"7  c #592F06",
"8  c #592F05",
"9  c #522D08",
"0  c #522E08",
"q  c #542E08",
"w  c #512F0C",
"e  c #522E08",
"r  c #593005",
"t  c #5A3005",
"y  c #593006",
"u  c #593007",
"i  c #593107",
"p  c #5A3006",
"a  c #5B3006",
"s  c #5A3106",
"d  c #5B3106",
"f  c #5A3007",
"g  c #5A3107",
"h  c #5B3107",
"j  c #5A3006",
"k  c #573008",
"l  c #573009",
"z  c #50310F",
"x  c #5B3208",
"c  c #5B3309",
"v  c #58320A",
"b  c #5C3309",
"n  c #5D3309",
"m  c #5C330A",
"M  c #5D330A",
"N  c #5D340A",
"B  c #5D340B",
"V  c #5E360D",
"C  c #5E360E",
"Z  c #5F360E",
"A  c #5F370E",
"S  c #5F370F",
"D  c #5D340B",
"F  c #412812",
"G  c #432912",
"H  c #462B14",
"J  c #472B14",
"K  c #462C14",
"L  c #472C14",
"P  c #472C15",
"I  c #472B14",
"U  c #482C14",
"Y  c #492D14",
"T  c #4D3015",
"R  c #4C3017",
"E  c #4E3117",
"W  c #4F3217",
"Q  c #533317",
"!  c #533417",
"~  c #5F3A11",
"^  c #5B3816",
"/  c #5A3817",
"(  c #5B3817",
")  c #5B3917",
"_  c #5F3914",
"`  c #5E3A15",
"'  c #5F3A15",
"]  c #5D3A17",
"[  c #5F3B16",
"{  c #5D3914",
"}  c #523418",
"|  c #533418",
" . c #533518",
".. c #533519",
"X. c #543418",
"o. c #543518",
"O. c #543419",
"+. c #543519",
"@. c #543619",
"#. c #54361A",
"$. c #54361B",
"%. c #533518",
"&. c #593818",
"*. c #583819",
"=. c #5A3818",
"-. c #5B3818",
";. c #5A3918",
":. c #5B3918",
">. c #5B3919",
",. c #5B3A19",
"<. c #5A3A1B",
"1. c #5D3C1A",
"2. c #5D3C1B",
"3. c #5B3918",
"4. c #603911",
"5. c #613911",
"6. c #603A11",
"7. c #603912",
"8. c #603A12",
"9. c #613A12",
"0. c #603B12",
"q. c #623B14",
"w. c #603B16",
"e. c #603B17",
"r. c #623C14",
"t. c #603C17",
"y. c #603B15",
"u. c #633F1A",
"i. c #633F1B",
"p. c #643F1B",
"a. c #633F1C",
"s. c #643F1C",
"d. c #613C18",
"f. c #65411C",
"g. c #64411F",
/* pixels */
"6 , o ..f.u.u.a.Y = 9.r r 1 : + / p p p 9 + L V 6 6 6 % @ g.s.u.",
"6 , + ..B p p l $ = 9.r 6 6 : + / p 6 1 9 O I V r < k % $ 1.p p ",
"6 , + ..c p 6 < $ * ~ 1 6 p - O { x 6 < 9 O I V 1 6 6 % $ u.6 6 ",
"p , O ..B p p k $ * 6.r 6 p : + ;.x p p 9 O L ~ 6 p p % @ { 6 c ",
"1 ; + ..b 6 6 < $ * 6.1 6 p : + :.p 6 6 9 + Y ~ 1 6 6 % $ d.7 6 ",
"; : o ..b 6 6 < # $ Q ; ; , % + :.p 6 6 9 O * , ; , , $ $ 2.< 6 ",
"+ + . +.b 6 6 < # . X o + + X X :.c 6 < 9 O   + + o + X $ d.6 6 ",
"! Q $ ! b 1 p < # $ X.! Q Q R $ ;.p 6 6 < O * +.! Q +.J $ :.6 6 ",
"x w O ..c p p < # = r.B b b ; + ;.p 6 6 w O K 6.p c c : $ 2.7 6 ",
"6 ; + ..c p 4 k # * ~ 4 1 p : + ;.p 6 6 9 O J V 4 p p % @ d.6 6 ",
"p ; o * : : - - @ * ~ r 6 < - X > : - : : + J C 6 r 1 % + I : : ",
"6 ; X X o o o + X * 6.1 6 6 : . X + X + +   K C < r 6 %   X o o ",
"6 , o R ;./ / / F = 6.1 6 6 : + $.=./ / / * J C 6 6 6 % @ <.;./ ",
"6 , + ..B p p k $ * ~ 1 < 6 - + ;.b 6 x < O J V 6 6 < % $ [ p p ",
"6 , + ! b 6 6 < $ = 6.6 p 6 - + ;.p 6 6 9 + J V 6 < < % $ r.6 < ",
"6 , X X.b 6 p < $ * 6.p 1 6 - + / p 6 6 9 O J V 6 p c % @ y.p p ",
"< ; o ..b 6 r < $ * 5.1 6 6 : o ;.p 6 6 < O I V r r 6 % $ d.6 6 ",
"p ; o ! b 6 1 < $ * 6.x < 6 : o ;.p 6 6 9 + L B 1 1 6 % @ d.6 < ",
"- % o ! b 6 6 < $ @ > : : - % + ;.p 6 < 9 O $ : - - - # $ r.6 6 ",
"+ @ X ! c 6 6 6 # . + + + + + . ;.p 6 6 9 O X + + + + X @ :.6 6 ",
":.;.$ +.B 1 1 < # * 2.;./ ;.+.$ ;.c 6 6 w + F 1.=.;.:.E $ 2.7 7 ",
"p , + +.x r 6 < # * 6.c p 6 : @ ;.6 6 6 9 O I ~ 7 c c % $ d.6 7 ",
"6 , + ..c < 1 < $ = ~ 6 6 6 - + =.7 < 6 9 O L B 6 6 6 % $ d.6 6 ",
"6 ; + E c < < 9 $ * ~ 6 6 6 - X * % % % % X L V 6 6 q % @ / < q ",
"6 , o O $ # $ # o = ~ 6 < 6 : . + $ $ @ @ X J V 6 < p % X $ $ # ",
"6 , X $ = = = * @ = ~ 6 6 6 - + <.{ _ ~ :.* J V 6 6 < % X * = * ",
"6 , X +.6.6.{ y.: = ~ 1 6 p : + =.7 6 < w O I V 6 < p % $ s.{ ~ ",
"6 , + | b 1 p < # * ~ r 6 < - + :.7 6 1 9 O I V 6 6 6 % $ { 6 6 ",
"p , + ..B p p q & * [ p 7 7 > + :.f 7 7 9 O K V l 6 c * $ :.b 6 ",
"p , + ..b 6 6 6 @ = ~ p 6 6 : + :.b 6 6 9 O L ~ < 6 6 % @ a.6 6 ",
"6 ; o ! c 6 6 < $ = ~ p < 6 : + ;.7 6 6 9 O H D < 6 < % $ y.6 6 ",
": % + ..c 6 p < & O > % : : % + ;.c 6 6 , O $ > : : > $ $ d.6 < "
};
